<svg width="2475" height="705" xmlns="http://www.w3.org/2000/svg" xmlns:xlink="http://www.w3.org/1999/xlink" xml:space="preserve" overflow="hidden"><defs><clipPath id="clip0"><rect x="0" y="0" width="2475" height="705"/></clipPath><clipPath id="clip1"><rect x="0" y="0" width="2475" height="705"/></clipPath><clipPath id="clip2"><rect x="-1" y="0" width="2452" height="706"/></clipPath><clipPath id="clip3"><rect x="-1" y="0" width="2452" height="706"/></clipPath><clipPath id="clip4"><rect x="0" y="-1" width="2475" height="554"/></clipPath><clipPath id="clip5"><rect x="3.23074e-05" y="-8.40679e-07" width="2475" height="552"/></clipPath></defs><g clip-path="url(#clip0)"><g clip-path="url(#clip1)"><g clip-path="url(#clip2)"><g clip-path="url(#clip3)"><g><path d="M236.08-62.45C612.436-1522.92 1163.55 54.444-4.44899 1845.97-691.391-179.344 233.878-1570.64 236.08-62.45Z" stroke="#BCD3C8" stroke-width="23.5915" stroke-linecap="butt" stroke-linejoin="miter" stroke-miterlimit="8" stroke-opacity="1" fill="#BCD3C8" fill-rule="evenodd" fill-opacity="1" transform="matrix(1.83697e-16 1 1.37374 -2.52352e-16 -92.7078 2.29193)"/></g></g></g><g clip-path="url(#clip4)"><g clip-path="url(#clip5)"><g><path d="M184.845-48.897C479.524-1192.42 911.034 42.6285-3.48346 1445.36-541.344-140.423 183.121-1229.77 184.845-48.897Z" fill="#09616A" fill-rule="evenodd" fill-opacity="1" transform="matrix(1.83697e-16 1 1.77169 -3.25454e-16 -93.6154 1.79439)"/></g></g></g></g></g></svg>