<svg width="1219" height="995" xmlns="http://www.w3.org/2000/svg" xmlns:xlink="http://www.w3.org/1999/xlink" xml:space="preserve" overflow="hidden"><g transform="translate(-1526 -1090)"><g><path d="M2071.5 1172.5C2071.5 1136.05 2101.05 1106.5 2137.5 1106.5 2173.95 1106.5 2203.5 1136.05 2203.5 1172.5 2203.5 1208.95 2173.95 1238.5 2137.5 1238.5 2101.05 1238.5 2071.5 1208.95 2071.5 1172.5Z" stroke="#000000" stroke-width="22.9167" stroke-linecap="butt" stroke-linejoin="miter" stroke-miterlimit="8" stroke-opacity="1" fill="#BF9000" fill-rule="evenodd" fill-opacity="1"/><path d="M2137.5 1238.5 2137.5 1345.26" stroke="#000000" stroke-width="22.9167" stroke-linecap="butt" stroke-linejoin="miter" stroke-miterlimit="8" stroke-opacity="1" fill="none" fill-rule="evenodd"/><path d="M1762.5 1278.5C1762.5 1242.05 1792.05 1212.5 1828.5 1212.5 1864.95 1212.5 1894.5 1242.05 1894.5 1278.5 1894.5 1314.95 1864.95 1344.5 1828.5 1344.5 1792.05 1344.5 1762.5 1314.95 1762.5 1278.5Z" stroke="#000000" stroke-width="22.9167" stroke-linecap="butt" stroke-linejoin="miter" stroke-miterlimit="8" stroke-opacity="1" fill="#C00000" fill-rule="evenodd" fill-opacity="1"/><path d="M2380.5 1278.5C2380.5 1242.05 2410.05 1212.5 2446.5 1212.5 2482.95 1212.5 2512.5 1242.05 2512.5 1278.5 2512.5 1314.95 2482.95 1344.5 2446.5 1344.5 2410.05 1344.5 2380.5 1314.95 2380.5 1278.5Z" stroke="#000000" stroke-width="22.9167" stroke-linecap="butt" stroke-linejoin="miter" stroke-miterlimit="8" stroke-opacity="1" fill="#548235" fill-rule="evenodd" fill-opacity="1"/><path d="M1894.5 1278.5 1996.25 1278.5 1996.25 1436.71" stroke="#000000" stroke-width="22.9167" stroke-linecap="butt" stroke-linejoin="miter" stroke-miterlimit="8" stroke-opacity="1" fill="none" fill-rule="evenodd"/><path d="M0 0 101.75 0 101.75 158.206" stroke="#000000" stroke-width="22.9167" stroke-linecap="butt" stroke-linejoin="miter" stroke-miterlimit="8" stroke-opacity="1" fill="none" fill-rule="evenodd" transform="matrix(-1 0 0 1 2377.25 1278.5)"/><path d="M1541.5 1454.5C1541.5 1418.05 1571.05 1388.5 1607.5 1388.5 1643.95 1388.5 1673.5 1418.05 1673.5 1454.5 1673.5 1490.95 1643.95 1520.5 1607.5 1520.5 1571.05 1520.5 1541.5 1490.95 1541.5 1454.5Z" stroke="#000000" stroke-width="22.9167" stroke-linecap="butt" stroke-linejoin="miter" stroke-miterlimit="8" stroke-opacity="1" fill="#00B0F0" fill-rule="evenodd" fill-opacity="1"/><path d="M1673.5 1454.5 1783.62 1454.5 1783.62 1582.62 1893.74 1582.62" stroke="#000000" stroke-width="22.9167" stroke-linecap="butt" stroke-linejoin="miter" stroke-miterlimit="8" stroke-opacity="1" fill="none" fill-rule="evenodd"/><path d="M2601.5 1454.5C2601.5 1418.05 2631.05 1388.5 2667.5 1388.5 2703.95 1388.5 2733.5 1418.05 2733.5 1454.5 2733.5 1490.95 2703.95 1520.5 2667.5 1520.5 2631.05 1520.5 2601.5 1490.95 2601.5 1454.5Z" stroke="#000000" stroke-width="22.9167" stroke-linecap="butt" stroke-linejoin="miter" stroke-miterlimit="8" stroke-opacity="1" fill="#C55A11" fill-rule="evenodd" fill-opacity="1"/><path d="M0 0 110.122 0 110.122 128.118 220.243 128.118" stroke="#000000" stroke-width="22.9167" stroke-linecap="butt" stroke-linejoin="miter" stroke-miterlimit="8" stroke-opacity="1" fill="none" fill-rule="evenodd" transform="matrix(-1 1.22465e-16 1.22465e-16 1 2600.74 1454.5)"/><g><g><g><path d="M406 507.5C350.175 507.5 304.5 461.825 304.5 406 304.5 350.175 350.175 304.5 406 304.5 461.825 304.5 507.5 350.175 507.5 406 507.5 461.825 461.825 507.5 406 507.5ZM634.375 342.562C629.3 323.954 621.688 306.192 612.383 290.121L633.529 226.683 585.317 178.471 521.879 199.617C504.962 190.312 487.2 182.7 468.592 177.625L439.833 118.417 372.167 118.417 342.562 177.625C323.954 182.7 306.192 190.312 290.121 199.617L226.683 178.471 178.471 226.683 199.617 290.121C190.312 307.037 182.7 324.8 177.625 343.408L118.417 372.167 118.417 439.833 177.625 469.437C182.7 488.046 190.312 505.808 199.617 521.879L178.471 585.317 226.683 633.529 290.121 612.383C307.037 621.688 324.8 629.3 343.408 634.375L373.012 693.583 440.679 693.583 470.283 634.375C488.892 629.3 506.654 621.688 522.725 612.383L586.162 633.529 634.375 585.317 613.229 521.879C622.533 504.962 630.146 487.2 635.221 468.592L694.429 438.987 694.429 371.321 634.375 342.562Z" stroke="#000000" stroke-width="25.6759" stroke-linecap="butt" stroke-linejoin="miter" stroke-miterlimit="4" stroke-opacity="1" fill="#2F5597" fill-rule="nonzero" fill-opacity="1" transform="matrix(1 0 0 1 1731 1272)"/></g></g></g></g></g></svg>