<?xml version="1.0" encoding="UTF-8" standalone="no"?>
<svg
   version="1.1"
   id="svg833"
   width="1004.8693"
   height="506.03473"
   viewBox="0 0 1004.8692 506.03471"
   xml:space="preserve"
   sodipodi:docname="elimia-logo-dec2023_v2.svg"
   inkscape:export-filename="elimia-logo-dec2023_v2.png"
   inkscape:export-xdpi="400"
   inkscape:export-ydpi="400"
   inkscape:version="1.3.2 (091e20e, 2023-11-25)"
   xmlns:inkscape="http://www.inkscape.org/namespaces/inkscape"
   xmlns:sodipodi="http://sodipodi.sourceforge.net/DTD/sodipodi-0.dtd"
   xmlns="http://www.w3.org/2000/svg"
   xmlns:svg="http://www.w3.org/2000/svg"
   xmlns:rdf="http://www.w3.org/1999/02/22-rdf-syntax-ns#"
   xmlns:cc="http://creativecommons.org/ns#"
   xmlns:dc="http://purl.org/dc/elements/1.1/"><sodipodi:namedview
     id="namedview1"
     pagecolor="#ffffff"
     bordercolor="#000000"
     borderopacity="0.25"
     inkscape:showpageshadow="2"
     inkscape:pageopacity="0.0"
     inkscape:pagecheckerboard="0"
     inkscape:deskcolor="#d1d1d1"
     showgrid="false"
     inkscape:export-bgcolor="#ffffff00"
     inkscape:zoom="0.3"
     inkscape:cx="185"
     inkscape:cy="225"
     inkscape:window-width="1392"
     inkscape:window-height="940"
     inkscape:window-x="0"
     inkscape:window-y="25"
     inkscape:window-maximized="0"
     inkscape:current-layer="g7" /><metadata
     id="metadata839"><rdf:RDF><cc:Work
         rdf:about=""><dc:format>image/svg+xml</dc:format><dc:type
           rdf:resource="http://purl.org/dc/dcmitype/StillImage" /></cc:Work></rdf:RDF></metadata><defs
     id="defs837" /><g
     id="g841"
     transform="translate(112.66388,135.66066)"><g
       id="g949"
       transform="translate(-32.751092,1.5283843)"><g
         id="g1242"><g
           id="g1"><g
             id="g2"
             transform="matrix(2.0131858,0,0,2.0131858,80.966508,138.99799)"><g
               id="g3"><g
                 id="g3-4-7-3-4"
                 transform="translate(-101.02188,-7.5091468)"
                 style="stroke:#ffffff"><g
                   id="g1296-8-3-3-2"
                   style="stroke:#ffffff;stroke-width:5;stroke-dasharray:none;stroke-opacity:1"><g
                     id="g960-8-9-8-3"
                     transform="rotate(-9.4736347,78.055438,78.364957)"
                     style="stroke:#ffffff;stroke-width:5;stroke-dasharray:none;stroke-opacity:1" /><path
                     style="fill:#ffffff;stroke:#ffffff;stroke-width:0;stroke-dasharray:none"
                     d="m 24.420592,-220.41502 33.11501,-9.9345"
                     id="path1" /></g></g><g
                 id="g6"><g
                   id="g7"><path
                     id="path2-5-7-7-5-3"
                     style="fill:#0b626b;fill-opacity:1;stroke:#ffffff;stroke-width:11.42467824;stroke-dasharray:none;stroke-opacity:1"
                     d="m 34.924474,6.2463516 c 8.332039,-2.3821158 -4.56703,2.584998 31.840351,-9.5155057 L 81.39393,-7.6410697 96.289562,-12.092637 124.9465,-20.656778 M 98.181557,-95.682403 c 8.332073,8.176956 9.164203,20.915652 11.895453,31.70161 11.38252,11.276985 14.69111,27.904431 14.74176,43.352368 l 1.22528,0.92449 c 11.89718,13.9869057 17.6389,32.909801 17.44722,51.13583 C 143.4247,52.32179 129.6828,70.959068 111.61819,80.435799 90.607956,89.268365 69.919054,100.74448 55.018559,118.42465 45.042006,112.30327 34.282372,99.881567 28.964786,89.483889 15.176858,62.28836 23.755687,33.442698 34.873163,6.5466653 35.124709,-7.7949731 34.09765,-22.628118 41.373777,-35.753883 c 8.890562,-15.34019 7.146489,-35.365456 19.722969,-48.779603 m 37.239193,-11.038343 c -3.833995,-10.308331 -4.844259,-19.747391 -12.414115,-28.028091 -10.138869,-1.62975 -7.849253,-1.37922 -11.537479,3.02524 -4.19453,8.88374 -10.519975,26.565762 -13.13583,36.034716 l 13.588614,-4.04201 9.797786,-2.914407 z m 12.152571,31.732848 -65.102523,19.455926 44.541574,-13.311275 z"
                     sodipodi:nodetypes="ccccccccccccccccccccccccccc"
                     transform="translate(-101.02188,-7.5091451)" /><path
                     style="fill:#0b626b;fill-opacity:1;stroke:#0b626b;stroke-width:3.64339;stroke-dasharray:none;stroke-opacity:1"
                     d="m -12.761856,-107.17563 23.939233,91.895785"
                     id="path4" /><path
                     style="fill:#0b626b;fill-opacity:1;stroke:#0b626b;stroke-width:2.32914;stroke-dasharray:none;stroke-opacity:1"
                     d="m -11.601368,-107.4747 6.2679639,11.929332 -2.6284997,0.808769 z"
                     id="path5" /><path
                     style="fill:#0b626b;fill-opacity:1;stroke:#0b626b;stroke-width:2.70541;stroke-dasharray:none;stroke-opacity:1"
                     d="m 1.0502522,-75.546186 5.3001297,11.19251 -2.4443168,0.642336 z"
                     id="path5-2" /><path
                     style="fill:#0b626b;fill-opacity:1;stroke:#0b626b;stroke-width:2.30133;stroke-dasharray:none;stroke-opacity:1"
                     d="m -1.5469096,-75.152959 6.069728,13.663575 -2.968909,0.703804 z"
                     id="path5-2-7" /><path
                     style="fill:#0b626b;fill-opacity:1;stroke:#0b626b;stroke-width:1.73059;stroke-dasharray:none;stroke-opacity:1"
                     d="m 17.266793,-32.213593 4.796881,11.512529 -11.192735,3.517713 -3.1979187,-12.152109 z"
                     id="path6" /><text
                     xml:space="preserve"
                     style="font-style:normal;font-variant:normal;font-weight:normal;font-stretch:normal;font-size:119.214px;font-family:'Academy Engraved LET';-inkscape-font-specification:'Academy Engraved LET';fill:#0b626b;fill-opacity:1;stroke-width:5;stroke-dasharray:none"
                     x="49.481419"
                     y="66.940628"
                     id="text1"><tspan
                       id="tspan1"
                       x="49.481419"
                       y="66.940628"
                       style="font-style:normal;font-variant:normal;font-weight:normal;font-stretch:normal;font-size:119.214px;font-family:'Days One';-inkscape-font-specification:'Days One';fill:#0b626b;fill-opacity:1">elimia</tspan></text></g></g></g></g></g></g></g></g></svg>
