<svg width="2782" height="1475" xmlns="http://www.w3.org/2000/svg" xmlns:xlink="http://www.w3.org/1999/xlink" xml:space="preserve" overflow="hidden"><defs><clipPath id="clip0"><rect x="885" y="420" width="2782" height="1475"/></clipPath><clipPath id="clip1"><rect x="885" y="420" width="693" height="1145"/></clipPath><clipPath id="clip2"><rect x="885" y="420" width="693" height="1145"/></clipPath><clipPath id="clip3"><rect x="885" y="420" width="693" height="1145"/></clipPath></defs><g clip-path="url(#clip0)" transform="translate(-885 -420)"><g clip-path="url(#clip1)"><g clip-path="url(#clip2)"><g clip-path="url(#clip3)"><path d="M502.245 273.005 460.644 299.006C395.089 339.977 333.241 496.609 328.041 525.21 322.841 553.81 218.839 618.812 198.039 735.814 177.239 852.816 237.04 855.416 335.842 1040.02 335.842 1040.02 406.043 949.018 543.845 928.217" stroke="#0B626B" stroke-width="40.9012" fill="#0B626B" transform="matrix(0.986527 -0.164593 0.164621 0.986357 588.969 553.602)"/><path d="M502.245 273.005C502.245 273.005 598.793 140.485 642.647 119.602 697.248 93.6018 767.45 13.0002 780.45 18.2003" stroke="#0B626B" stroke-width="40.9012" fill="#0B626B" transform="matrix(0.986527 -0.164593 0.164621 0.986357 588.969 553.602)"/><path d="M543.845 928.217C543.845 928.217 780.45 894.417 816.851 808.615 816.851 808.615 920.853 660.412 837.651 533.01" stroke="#0B626B" stroke-width="40.9012" fill="#0B626B" transform="matrix(0.986527 -0.164593 0.164621 0.986357 588.969 553.602)"/><path d="M840.281 548.521C840.281 548.521 894.852 319.806 837.651 291.205" stroke="#0B626B" stroke-width="40.9012" fill="#0B626B" transform="matrix(0.986527 -0.164593 0.164621 0.986357 588.969 553.602)"/><path d="M848.211 307.967C848.211 307.967 840.251 137.803 814.251 109.202" stroke="#0B626B" stroke-width="40.9012" fill="#0B626B" transform="matrix(0.986527 -0.164593 0.164621 0.986357 588.969 553.602)"/><path d="M818.988 120.832C818.988 120.832 810.588 65.7761 771.588 11.175" stroke="#0B626B" stroke-width="40.9012" fill="#0B626B" transform="matrix(0.986527 -0.164593 0.164621 0.986357 588.969 553.602)"/><path d="M409.513-1232.33 558.86-1232.33 558.86-675.675 409.513-675.675Z" stroke="#0B626B" stroke-width="40.901" fill="#0B626B" transform="matrix(1.00017 0 0 1 744.767 2026.86)"/><path d="M565.648-1276.46 735.36-1276.46 735.36-763.925 565.648-763.925Z" stroke="#0B626B" stroke-width="40.901" fill="#0B626B" transform="matrix(1.00017 0 0 1 744.767 2026.86)"/><path d="M400.794-1285.17 558.86-1285.17 558.86-1232.33 400.794-1232.33Z" stroke="#0B626B" stroke-width="40.901" fill="#0B626B" transform="matrix(1.00017 0 0 1 744.767 2026.86)"/><path d="M555.466-1432.59 657.293-1432.59 657.293-1266.27 555.466-1266.27Z" stroke="#0B626B" stroke-width="40.901" fill="#0B626B" transform="matrix(1.00017 0 0 1 744.767 2026.86)"/><path d="M429.212-1345.47 565.648-1345.47 565.648-1276.46 429.212-1276.46Z" stroke="#0B626B" stroke-width="40.901" fill="#0B626B" transform="matrix(1.00017 0 0 1 744.767 2026.86)"/><path d="M646.216-1453.23 666.883-1453.23 666.883-1314.47 646.216-1314.47Z" stroke="#0B626B" stroke-width="40.901" fill="#0B626B" transform="matrix(1.00017 0 0 1 744.767 2026.86)"/><path d="M590.252-1521.01 628.369-1521.01 628.369-1475.51 590.252-1475.51Z" stroke="#0B626B" stroke-width="58.8805" fill="#0B626B" transform="matrix(1.00017 0 0 1 744.767 2026.86)"/><path d="M677.216-1385.33 697.884-1385.33 697.884-1246.56 677.216-1246.56Z" stroke="#0B626B" stroke-width="40.901" fill="#0B626B" transform="matrix(1.00017 0 0 1 744.767 2026.86)"/><path d="M469.345-1421.73 524.89-1421.73 524.89-1245.59 469.345-1245.59Z" stroke="#0B626B" stroke-width="31.0867" fill="#0B626B" transform="matrix(1.00017 0 0 1 744.767 2026.86)"/><path d="M557.212-1475.51 628.369-1475.51 628.369-1301.7 557.212-1301.7Z" stroke="#0B626B" stroke-width="34.9522" fill="#0B626B" transform="matrix(1.00017 0 0 1 744.767 2026.86)"/><path d="M513.207-1455.99 584.364-1455.99 584.364-1282.19 513.207-1282.19Z" stroke="#0B626B" stroke-width="34.9522" fill="#0B626B" transform="matrix(1.00017 0 0 1 744.767 2026.86)"/><path d="M591.015-1553.86 626.13-1553.86 626.13-1370.33 591.015-1370.33Z" stroke="#0B626B" stroke-width="25.2309" fill="#0B626B" transform="matrix(1.00017 0 0 1 744.767 2026.86)"/><path d="M694.09-1285.82 714.757-1285.82 714.757-1147.05 694.09-1147.05Z" stroke="#0B626B" stroke-width="40.901" fill="#0B626B" transform="matrix(1.00017 0 0 1 744.767 2026.86)"/><path d="M464.664-1362.72 485.331-1362.72 485.331-1223.95 464.664-1223.95Z" stroke="#0B626B" stroke-width="40.901" fill="#0B626B" transform="matrix(1.00017 0 0 1 744.767 2026.86)"/><path d="M638.977-1465.26 659.644-1465.26 659.644-1326.49 638.977-1326.49Z" stroke="#0B626B" stroke-width="40.901" fill="#0B626B" transform="matrix(1.00017 0 0 1 744.767 2026.86)"/><path d="M556.947-852.598 577.614-852.598 577.614-713.834 556.947-713.834Z" stroke="#0B626B" stroke-width="40.901" fill="#0B626B" transform="matrix(1.00017 0 0 1 744.767 2026.86)"/><path d="M497.988-792.358 518.655-792.358 518.655-653.594 497.988-653.594Z" stroke="#0B626B" stroke-width="40.901" fill="#0B626B" transform="matrix(1.00017 0 0 1 744.767 2026.86)"/><path d="M285.721 567.259 745.819 492.899" stroke="#DCE8E3" stroke-width="81.802" fill="none" transform="matrix(1.00017 0 0 1 669.652 458.737)"/><path d="M562.434 87.7278C617.882 79.6239 671.859 69.6813 676.181 69.5658" stroke="#DCE8E3" stroke-width="81.802" fill="none" transform="matrix(1.00017 0 0 1 669.652 458.737)"/><path d="M423.542 288.858 695.579 246.191" stroke="#DCE8E3" stroke-width="81.802" fill="none" transform="matrix(1.00017 0 0 1 669.652 458.737)"/><path d="M432.391 281.479 395.637 313.972C337.72 365.174 313.089 568.049 312.667 597.115" stroke="#DCE8E3" stroke-width="81.802" fill="none" transform="matrix(1.00017 0 0 1 669.652 458.737)"/><path d="M423.542 288.858C423.542 288.858 542.545 107.949 582.364 80.1323" stroke="#DCE8E3" stroke-width="81.802" fill="none" transform="matrix(1.00017 0 0 1 669.652 458.737)"/><path d="M30.2987 231.522 173.976 206.698" stroke="#DCE8E3" stroke-width="23.2299" fill="none" transform="matrix(1.00017 0 0 1 914.169 827.125)"/></g></g></g><text fill="#015D5C" font-family="Days One,Days One_MSFontService,sans-serif" font-weight="700" font-size="550" transform="matrix(1 0 0 1 1595.89 1420)">elimia</text></g></svg>